<svg width="53" height="52" viewBox="0 0 53 52" fill="none" xmlns="http://www.w3.org/2000/svg">
<g filter="url(#filter0_d_1_94)">
<rect x="16" y="8" width="28" height="28" rx="14" fill="#1B9874"/>
<path d="M33.1814 16.191C32.0226 16.191 30.9105 16.7305 30.1846 17.5829C29.4588 16.7305 28.3467 16.191 27.1879 16.191C25.1368 16.191 23.5252 17.8026 23.5252 19.8537C23.5252 22.371 25.7894 24.4221 29.219 27.5387L30.1846 28.4111L31.1503 27.532C34.5799 24.4221 36.8441 22.371 36.8441 19.8537C36.8441 17.8026 35.2325 16.191 33.1814 16.191ZM30.2512 26.5464L30.1846 26.613C30.1846 26.613 31.2502 28.1114 30.1181 26.5464C28.9859 24.9815 38.7087 19.7205 27.7872 20.5862C27.3877 22.1845 30.451 21.3854 31.7829 21.3854C32.8084 21.3854 29.2124 18.1822 29.5653 19.0945L30.1181 27.5387C30.4643 26.6263 32.1558 24.9815 33.1814 24.9815C34.5133 24.9815 35.636 19.8537 34.9794 19.7871C33.3811 20.1201 33.4211 23.6762 30.2512 26.5464Z" fill="white"/>
</g>
<defs>
<filter id="filter0_d_1_94" x="0.816552" y="0.00871134" width="51.9739" height="51.9739" filterUnits="userSpaceOnUse" color-interpolation-filters="sRGB">
<feFlood flood-opacity="0" result="BackgroundImageFix"/>
<feColorMatrix in="SourceAlpha" type="matrix" values="0 0 0 0 0 0 0 0 0 0 0 0 0 0 0 0 0 0 127 0" result="hardAlpha"/>
<feOffset dx="-3.19652" dy="3.99564"/>
<feGaussianBlur stdDeviation="5.99347"/>
<feComposite in2="hardAlpha" operator="out"/>
<feColorMatrix type="matrix" values="0 0 0 0 1 0 0 0 0 1 0 0 0 0 1 0 0 0 0.25 0"/>
<feBlend mode="normal" in2="BackgroundImageFix" result="effect1_dropShadow_1_94"/>
<feBlend mode="normal" in="SourceGraphic" in2="effect1_dropShadow_1_94" result="shape"/>
</filter>
</defs>
</svg>
