<svg width="32" height="32" viewBox="0 0 32 32" fill="none" xmlns="http://www.w3.org/2000/svg">
<path d="M16 29.3333C14.3333 29.3333 12.772 29.0164 11.316 28.3827C9.85999 27.7489 8.59332 26.8938 7.51599 25.8173C6.43865 24.7391 5.58354 23.4724 4.95065 22.0173C4.31777 20.5622 4.00088 19.0009 3.99999 17.3333C3.99999 15.6667 4.31688 14.1053 4.95065 12.6493C5.58443 11.1933 6.43954 9.92667 7.51599 8.84933C8.59421 7.772 9.86088 6.91689 11.316 6.284C12.7711 5.65111 14.3324 5.33422 16 5.33333C17.6667 5.33333 19.228 5.65022 20.684 6.284C22.14 6.91778 23.4067 7.77333 24.484 8.85067C25.5613 9.928 26.4169 11.1947 27.0507 12.6507C27.6844 14.1067 28.0009 15.6676 28 17.3333C28 19 27.6831 20.5613 27.0493 22.0173C26.4155 23.4733 25.5604 24.74 24.484 25.8173C23.4058 26.8947 22.1391 27.7502 20.684 28.384C19.2289 29.0178 17.6675 29.3342 16 29.3333ZM19.7333 22.9333L21.6 21.0667L17.3333 16.8V10.6667H14.6667V17.8667L19.7333 22.9333ZM7.46665 3.13333L9.33332 5L3.66665 10.6667L1.79999 8.8L7.46665 3.13333ZM24.5333 3.13333L30.2 8.8L28.3333 10.6667L22.6667 5L24.5333 3.13333Z" fill="#757575"/>
</svg>
