<svg width="53" height="53" viewBox="0 0 53 53" fill="none" xmlns="http://www.w3.org/2000/svg">
<g filter="url(#filter0_d_1_75)">
<rect x="16" y="8.5" width="28" height="28" rx="14" fill="#1B9874"/>
<path d="M33.1814 16.691C32.0226 16.691 30.9105 17.2305 30.1846 18.0829C29.4588 17.2305 28.3466 16.691 27.1879 16.691C25.1368 16.691 23.5252 18.3026 23.5252 20.3537C23.5252 22.871 25.7894 24.9221 29.219 28.0387L30.1846 28.9111L31.1503 28.032C34.5799 24.9221 36.8441 22.871 36.8441 20.3537C36.8441 18.3026 35.2325 16.691 33.1814 16.691ZM30.2512 27.0464L30.1846 27.113C30.1846 27.113 31.2502 28.6114 30.1181 27.0464C28.9859 25.4815 38.7087 20.2205 27.7872 21.0862C27.3877 22.6845 30.451 21.8854 31.7829 21.8854C32.8084 21.8854 29.2124 18.6822 29.5653 19.5945L30.1181 28.0387C30.4643 27.1263 32.1558 25.4815 33.1814 25.4815C34.5133 25.4815 35.636 20.3537 34.9794 20.2871C33.3811 20.6201 33.4211 24.1762 30.2512 27.0464Z" fill="white"/>
</g>
<defs>
<filter id="filter0_d_1_75" x="0.816552" y="0.508711" width="51.9739" height="51.9739" filterUnits="userSpaceOnUse" color-interpolation-filters="sRGB">
<feFlood flood-opacity="0" result="BackgroundImageFix"/>
<feColorMatrix in="SourceAlpha" type="matrix" values="0 0 0 0 0 0 0 0 0 0 0 0 0 0 0 0 0 0 127 0" result="hardAlpha"/>
<feOffset dx="-3.19652" dy="3.99564"/>
<feGaussianBlur stdDeviation="5.99347"/>
<feComposite in2="hardAlpha" operator="out"/>
<feColorMatrix type="matrix" values="0 0 0 0 1 0 0 0 0 1 0 0 0 0 1 0 0 0 0.25 0"/>
<feBlend mode="normal" in2="BackgroundImageFix" result="effect1_dropShadow_1_75"/>
<feBlend mode="normal" in="SourceGraphic" in2="effect1_dropShadow_1_75" result="shape"/>
</filter>
</defs>
</svg>
